# xmcd CD database file generated by freedbAccess_ocx
#
# Track frame offsets:
#       183
#       12013
#       22640
#       40178
#       55315
#       66828
#       78850
#       92355
#       123535
#       138353
#       149063
#
# Disc length: 2124 seconds
#
# Revision: 0
# Processed by: cddbd v1.5.1PL0 Copyright (c) Steve Scherf et al.
# Submitted via: CDnGo 2.00
#
DISCID=87084a0b
DTITLE=The Yardbirds - Happenings (live)
DYEAR=1967
DGENRE=Beat
TTITLE0=Shapes Of Things
TTITLE1=Heart Full Of Soul
TTITLE2=Mr., You're A Better Man Than I
TTITLE3=Most Likely You'll Go Your Way
TTITLE4=Over Under Sideways Down
TTITLE5=Little Games
TTITLE6=My Baby
TTITLE7=I'm A Man
TTITLE8=I Wish You Would
TTITLE9=Shapes Of Things
TTITLE10=Happenings Ten Years Time Ago
EXTD=
EXTT0=
EXTT1=
EXTT2=
EXTT3=
EXTT4=
EXTT5=
EXTT6=
EXTT7=
EXTT8=
EXTT9=
EXTT10=
PLAYORDER=
